<svg xmlns="http://www.w3.org/2000/svg" xmlns:xlink="http://www.w3.org/1999/xlink" width="500" zoomAndPan="magnify" viewBox="0 0 375 374.999991" height="500" preserveAspectRatio="xMidYMid meet" version="1.0"><defs><clipPath id="c467affc40"><path d="M 141 311 L 234 311 L 234 337.460938 L 141 337.460938 Z M 141 311 " clip-rule="nonzero"/></clipPath><clipPath id="ea4b8c1981"><path d="M 89.980469 34.460938 L 284.898438 34.460938 L 284.898438 321 L 89.980469 321 Z M 89.980469 34.460938 " clip-rule="nonzero"/></clipPath><clipPath id="e6eaa8a330"><path d="M 103.40625 47.269531 L 271.59375 47.269531 L 271.59375 215.457031 L 103.40625 215.457031 Z M 103.40625 47.269531 " clip-rule="nonzero"/></clipPath><clipPath id="ab5fd8f7d1"><path d="M 187.5 47.269531 C 141.058594 47.269531 103.40625 84.921875 103.40625 131.363281 C 103.40625 177.808594 141.058594 215.457031 187.5 215.457031 C 233.941406 215.457031 271.59375 177.808594 271.59375 131.363281 C 271.59375 84.921875 233.941406 47.269531 187.5 47.269531 Z M 187.5 47.269531 " clip-rule="nonzero"/></clipPath><clipPath id="5252c0489a"><path d="M 109.167969 53.03125 L 265.832031 53.03125 L 265.832031 209.699219 L 109.167969 209.699219 Z M 109.167969 53.03125 " clip-rule="nonzero"/></clipPath><clipPath id="e6f8cad777"><path d="M 187.5 53.03125 C 144.238281 53.03125 109.167969 88.101562 109.167969 131.363281 C 109.167969 174.625 144.238281 209.699219 187.5 209.699219 C 230.761719 209.699219 265.832031 174.625 265.832031 131.363281 C 265.832031 88.101562 230.761719 53.03125 187.5 53.03125 Z M 187.5 53.03125 " clip-rule="nonzero"/></clipPath><clipPath id="b3884e715a"><path d="M 116.957031 60.824219 L 257.957031 60.824219 L 257.957031 201.824219 L 116.957031 201.824219 Z M 116.957031 60.824219 " clip-rule="nonzero"/></clipPath></defs><g clip-path="url(#c467affc40)"><path fill="#011532" d="M 205.199219 311.4375 C 214.535156 312.84375 220.738281 315.335938 220.738281 318.175781 C 220.738281 322.574219 205.859375 326.136719 187.503906 326.136719 C 169.148438 326.136719 154.269531 322.574219 154.269531 318.175781 C 154.269531 315.335938 160.476562 312.84375 169.808594 311.4375 C 153.070312 313.472656 141.292969 318.308594 141.292969 323.949219 C 141.292969 331.433594 161.984375 337.496094 187.503906 337.496094 C 213.027344 337.496094 233.714844 331.433594 233.714844 323.949219 C 233.714844 318.308594 221.941406 313.472656 205.199219 311.4375 " fill-opacity="1" fill-rule="nonzero"/></g><g clip-path="url(#ea4b8c1981)"><path fill="#011532" d="M 116.945312 131.988281 C 116.945312 93.019531 148.535156 61.429688 187.503906 61.429688 C 226.472656 61.429688 258.066406 93.019531 258.066406 131.988281 C 258.066406 170.957031 226.472656 202.546875 187.503906 202.546875 C 148.535156 202.546875 116.945312 170.957031 116.945312 131.988281 Z M 285.027344 134.429688 C 285.027344 79.21875 241.363281 34.460938 187.503906 34.460938 C 133.644531 34.460938 89.980469 79.21875 89.980469 134.429688 C 89.980469 189.644531 187.503906 320.609375 187.503906 320.609375 C 187.503906 320.609375 285.027344 189.644531 285.027344 134.429688 " fill-opacity="1" fill-rule="nonzero"/></g><g clip-path="url(#e6eaa8a330)"><g clip-path="url(#ab5fd8f7d1)"><path fill="#c5ddff" d="M 103.40625 47.269531 L 271.59375 47.269531 L 271.59375 215.457031 L 103.40625 215.457031 Z M 103.40625 47.269531 " fill-opacity="1" fill-rule="nonzero"/></g></g><g clip-path="url(#5252c0489a)"><g clip-path="url(#e6f8cad777)"><path fill="#2d68ff" d="M 109.167969 53.03125 L 265.832031 53.03125 L 265.832031 209.699219 L 109.167969 209.699219 Z M 109.167969 53.03125 " fill-opacity="1" fill-rule="nonzero"/></g></g><g clip-path="url(#b3884e715a)"><path fill="#2d68ff" d="M 187.5 60.824219 C 226.457031 60.824219 258.039062 92.40625 258.039062 131.363281 C 258.039062 170.320312 226.457031 201.90625 187.5 201.90625 C 148.539062 201.90625 116.957031 170.320312 116.957031 131.363281 C 116.957031 92.40625 148.539062 60.824219 187.5 60.824219 " fill-opacity="1" fill-rule="nonzero"/></g><path fill="#ffffff" d="M 195.4375 156.476562 C 195.703125 154.859375 197.226562 153.765625 198.839844 154.027344 C 200.457031 154.289062 201.554688 155.8125 201.292969 157.429688 C 199.285156 169.726562 188.601562 178.886719 176.003906 178.886719 C 161.847656 178.886719 150.371094 167.421875 150.371094 153.28125 C 150.371094 144.019531 155.421875 135.464844 163.46875 130.953125 L 163.144531 119.664062 C 163.121094 118.847656 162.496094 118.097656 161.644531 118.097656 L 158.671875 118.097656 C 157.027344 118.097656 155.699219 116.769531 155.699219 115.128906 C 155.699219 113.488281 157.027344 112.15625 158.671875 112.15625 C 161.859375 112.15625 164.363281 111.828125 166.851562 114.316406 C 168.175781 115.640625 169.007812 117.476562 169.066406 119.5 L 169.445312 132.480469 C 169.550781 133.691406 168.898438 134.894531 167.730469 135.433594 C 155.316406 141.160156 152.429688 157.539062 162.085938 167.1875 C 169.332031 174.425781 180.941406 174.898438 188.746094 168.28125 C 192.230469 165.324219 194.671875 161.179688 195.4375 156.476562 " fill-opacity="1" fill-rule="nonzero"/><path fill="#ffffff" d="M 188.78125 109.234375 L 200.300781 122.363281 L 214.140625 125.035156 C 220 125.988281 218.597656 134.121094 212.730469 133.230469 L 197.386719 131.496094 C 196.414062 131.371094 195.472656 130.933594 194.730469 130.179688 L 190.175781 125.574219 L 190.472656 135.417969 L 209.222656 138.796875 C 210.824219 139.082031 212.078125 140.179688 212.636719 141.585938 L 212.652344 141.582031 L 220.179688 160.570312 L 222.992188 159.902344 C 228.574219 157.828125 231.738281 165.550781 226.152344 167.628906 L 219.507812 170.472656 C 219.425781 170.511719 219.339844 170.546875 219.253906 170.582031 C 217 171.472656 214.457031 170.433594 213.457031 168.261719 L 203.074219 149.621094 L 179.863281 148.21875 C 176.035156 147.988281 174.152344 144.378906 174.074219 141.53125 L 173.207031 112.757812 C 173.101562 108.871094 176.722656 105.648438 181.300781 105.554688 C 184.515625 105.492188 187.34375 106.988281 188.78125 109.234375 M 185.378906 83.839844 C 180.367188 83.839844 176.304688 87.898438 176.304688 92.90625 C 176.304688 97.914062 180.367188 101.96875 185.378906 101.96875 C 190.390625 101.96875 194.453125 97.914062 194.453125 92.90625 C 194.453125 87.898438 190.390625 83.839844 185.378906 83.839844 Z M 185.378906 83.839844 " fill-opacity="1" fill-rule="nonzero"/></svg>