<svg xmlns="http://www.w3.org/2000/svg"  viewBox="0 0 24 24" width="24px" height="24px"><path d="M11.919 7.008C11.947 7.008 11.973 7 12.001 7c1.522 0 2.766 1.138 2.96 2.607l3.365-3.983c-.725-1.168-1.727-2.113-2.9-2.744L11.919 7.008zM12.001 13c-1.521 0-2.764-1.136-2.96-2.604l-3.058 3.599c.418.681.881 1.342 1.344 1.993.349.492.69.976 1.008 1.461l3.768-4.46C12.068 12.991 12.036 13 12.001 13zM9.38 19.311c.27.606.473 1.229.565 1.888C10.087 22.226 10.971 23 12.002 23s1.913-.767 2.051-1.784c.258-1.902 1.406-3.518 2.621-5.228 1.731-2.437 3.512-4.958 2.558-8.338L9.38 19.311zM9.845 6.36l3.577-4.211c-.321-.065-.645-.118-.976-.137-1.971-.111-3.842.53-5.321 1.8L9.845 6.36zM5.792 5.305C4.962 6.536 4.501 7.999 4.501 9.5c0 .912.193 1.758.501 2.561l3.547-4.175L5.792 5.305z"/></svg>