<svg xmlns="http://www.w3.org/2000/svg" xmlns:xlink="http://www.w3.org/1999/xlink" width="500" zoomAndPan="magnify" viewBox="0 0 375 374.999991" height="500" preserveAspectRatio="xMidYMid meet" version="1.0"><defs><clipPath id="c5b6cd175a"><path d="M 137 139 L 238 139 L 238 236.289062 L 137 236.289062 Z M 137 139 " clip-rule="nonzero"/></clipPath><clipPath id="ff148f2483"><path d="M 164.914062 191.035156 L 209.914062 191.035156 L 209.914062 236.035156 L 164.914062 236.035156 Z M 164.914062 191.035156 " clip-rule="nonzero"/></clipPath></defs><rect x="-37.5" width="450" fill="#ffffff" y="-37.499999" height="449.999989" fill-opacity="1"/><rect x="-37.5" width="450" fill="#ffffff" y="-37.499999" height="449.999989" fill-opacity="1"/><path fill="#1995ed" d="M 235.730469 234.585938 L 138.773438 234.046875 L 138.773438 229.808594 L 235.460938 201.574219 Z M 141.769531 152.058594 C 143.148438 152.550781 152.863281 149.113281 152.863281 149.113281 L 150.769531 142.066406 L 139.808594 145.8125 C 139.808594 145.8125 138.914062 147.730469 139.050781 148.800781 C 139.183594 149.871094 140.386719 151.566406 141.769531 152.058594 Z M 141.769531 152.058594 " fill-opacity="1" fill-rule="evenodd"/><path fill="#7fd3ff" d="M 194.921875 174.273438 L 217.824219 167.539062 C 217.824219 167.539062 221.523438 167.359375 222.503906 168.519531 C 223.484375 169.679688 225.265625 175.660156 225.265625 175.660156 L 200.71875 183.6875 Z M 177.671875 169.144531 C 164.65625 169.144531 154.105469 179.566406 154.105469 192.429688 C 154.105469 205.289062 164.65625 215.714844 177.671875 215.714844 C 190.691406 215.714844 201.242188 205.289062 201.242188 192.429688 C 201.246094 179.566406 190.691406 169.144531 177.671875 169.144531 Z M 217.730469 192.40625 C 217.730469 197.199219 221.710938 201.082031 226.621094 201.082031 C 231.527344 201.082031 235.507812 197.199219 235.507812 192.40625 C 235.507812 187.613281 231.527344 183.730469 226.621094 183.730469 C 221.710938 183.726562 217.730469 187.613281 217.730469 192.40625 Z M 165.695312 170.574219 C 167.03125 169.949219 170.238281 168.476562 170.238281 168.476562 L 162.042969 143.984375 C 162.042969 143.984375 160.664062 140.996094 157.230469 140.503906 L 150.769531 142.066406 L 161.0625 173.785156 C 161.0625 173.785156 164.359375 171.195312 165.695312 170.574219 Z M 202.367188 154.691406 C 204.429688 154.191406 207.894531 153.398438 208.207031 152.015625 C 208.515625 150.632812 208.875 149.25 207.628906 147.691406 C 205.992188 146.128906 201.578125 147.066406 201.578125 147.066406 L 167.925781 158.171875 L 169.84375 164.773438 C 169.84375 164.773438 200.304688 155.191406 202.367188 154.691406 Z M 140.425781 230.882812 C 139.667969 231.019531 139.097656 231.683594 139.097656 232.476562 L 139.097656 234.046875 L 142.328125 234.066406 L 142.328125 233.6875 L 235.503906 206.578125 L 235.476562 203.226562 Z M 140.425781 230.882812 " fill-opacity="1" fill-rule="nonzero"/><path fill="#ffffff" d="M 192.605469 192.027344 C 192.605469 200.578125 185.925781 207.507812 177.6875 207.507812 C 169.449219 207.507812 162.769531 200.574219 162.769531 192.027344 C 162.769531 183.480469 169.449219 176.550781 177.6875 176.550781 C 185.925781 176.550781 192.605469 183.480469 192.605469 192.027344 Z M 162.339844 148.566406 L 162.636719 149.523438 C 163.074219 149.488281 163.496094 149.46875 163.871094 149.453125 L 162.042969 143.984375 C 162.042969 143.984375 161.832031 143.535156 161.375 142.953125 C 159.621094 142.085938 157.542969 141.863281 155.542969 142.484375 L 151.675781 143.695312 C 151.558594 143.734375 151.445312 143.78125 151.34375 143.839844 L 152.460938 147.277344 C 153.234375 146.578125 153.410156 146.59375 154.097656 146.253906 L 156.570312 145.546875 C 158.980469 144.84375 161.542969 146.179688 162.339844 148.566406 Z M 182.714844 169.675781 C 178.859375 169.03125 174.800781 169.257812 170.816406 170.503906 L 170.800781 170.507812 C 165.886719 172.050781 161.757812 174.929688 158.695312 178.625 C 155.8125 182.488281 154.105469 187.257812 154.105469 192.425781 C 154.105469 197.980469 156.078125 203.078125 159.363281 207.082031 C 158.375 205.492188 157.566406 203.753906 156.980469 201.882812 C 155.121094 195.929688 155.84375 189.785156 158.519531 184.667969 C 161.175781 179.578125 165.769531 175.496094 171.671875 173.621094 L 171.851562 173.566406 C 177.769531 171.738281 183.867188 172.46875 188.953125 175.128906 C 194.035156 177.792969 198.109375 182.390625 199.984375 188.296875 L 200.042969 188.480469 C 200.757812 190.800781 201.082031 193.144531 201.050781 195.449219 C 201.183594 194.460938 201.246094 193.453125 201.246094 192.429688 C 201.246094 181.277344 193.308594 171.957031 182.714844 169.675781 Z M 223.296875 170 L 223.078125 169.878906 C 221.28125 168.9375 219.121094 168.679688 217.050781 169.328125 L 195.949219 175.941406 L 200.71875 183.6875 L 201.492188 183.433594 C 201.085938 182.628906 200.640625 181.859375 200.164062 181.117188 L 200.160156 181.117188 C 199.585938 180.230469 198.96875 179.386719 198.304688 178.589844 L 218.011719 172.414062 C 219.246094 172.023438 220.527344 172.179688 221.589844 172.738281 C 222.65625 173.292969 223.507812 174.257812 223.894531 175.492188 L 224.070312 176.050781 L 225.273438 175.65625 C 225.265625 175.660156 224.226562 172.164062 223.296875 170 Z M 223.296875 170 " fill-opacity="1" fill-rule="nonzero"/><g clip-path="url(#c5b6cd175a)"><path fill="#0a57a2" d="M 182.757812 208.746094 L 182.773438 208.738281 C 187.375 207.296875 190.960938 204.121094 193.035156 200.148438 C 195.109375 196.183594 195.667969 191.425781 194.230469 186.820312 C 192.792969 182.210938 189.617188 178.625 185.65625 176.546875 C 181.691406 174.472656 176.9375 173.910156 172.339844 175.347656 C 167.742188 176.792969 164.152344 179.96875 162.082031 183.9375 C 160.007812 187.902344 159.445312 192.652344 160.878906 197.25 L 160.882812 197.269531 C 162.324219 201.875 165.496094 205.460938 169.460938 207.539062 C 173.417969 209.617188 178.164062 210.179688 182.757812 208.746094 Z M 170.953125 204.683594 C 167.75 203.007812 165.179688 200.113281 163.992188 196.398438 L 163.933594 196.214844 C 162.792969 192.480469 163.257812 188.636719 164.929688 185.429688 C 166.621094 182.199219 169.542969 179.609375 173.296875 178.433594 C 177.054688 177.253906 180.933594 177.710938 184.160156 179.402344 C 187.390625 181.089844 189.972656 184.015625 191.148438 187.777344 C 192.324219 191.539062 191.871094 195.421875 190.183594 198.65625 C 188.507812 201.859375 185.617188 204.433594 181.902344 205.621094 L 181.722656 205.679688 C 177.992188 206.828125 174.152344 206.363281 170.953125 204.683594 Z M 179.175781 191.976562 L 179.175781 192.113281 C 179.175781 193.007812 178.449219 193.730469 177.558594 193.730469 C 176.664062 193.730469 175.941406 193.007812 175.941406 192.113281 L 175.941406 191.976562 C 175.941406 191.082031 176.664062 190.355469 177.558594 190.355469 C 178.449219 190.359375 179.175781 191.082031 179.175781 191.976562 Z M 237.746094 201.410156 C 237.75 201.246094 237.730469 201.074219 237.683594 200.910156 C 237.4375 200.054688 236.542969 199.5625 235.6875 199.808594 L 234.046875 200.285156 C 234.972656 199.429688 235.738281 198.425781 236.316406 197.320312 C 237.605469 194.855469 237.957031 191.898438 237.0625 189.035156 C 236.167969 186.171875 234.191406 183.941406 231.726562 182.652344 C 229.714844 181.597656 227.375 181.171875 225.027344 181.539062 L 223.925781 178.015625 L 226.152344 177.316406 C 227.003906 177.054688 227.480469 176.148438 227.214844 175.296875 L 226.011719 171.445312 C 225.359375 169.363281 223.917969 167.738281 222.117188 166.796875 C 220.320312 165.855469 218.164062 165.597656 216.089844 166.246094 L 207.722656 168.867188 L 203.730469 156.097656 C 204.652344 155.800781 205.578125 155.511719 206.5 155.21875 C 207.835938 154.789062 208.882812 153.851562 209.488281 152.6875 C 210.101562 151.515625 210.269531 150.109375 209.847656 148.757812 L 209.832031 148.714844 C 209.402344 147.378906 208.46875 146.335938 207.308594 145.726562 C 206.136719 145.113281 204.730469 144.945312 203.382812 145.367188 L 197.277344 147.28125 L 168.109375 156.425781 L 164.417969 144.628906 C 163.765625 142.546875 162.324219 140.921875 160.523438 139.980469 C 158.730469 139.039062 156.582031 138.777344 154.515625 139.421875 L 150.648438 140.632812 L 140.828125 143.710938 C 139.476562 144.132812 138.414062 145.078125 137.800781 146.253906 C 137.1875 147.425781 137.019531 148.828125 137.441406 150.183594 C 137.863281 151.539062 138.808594 152.601562 139.980469 153.214844 C 141.152344 153.828125 142.558594 153.996094 143.90625 153.574219 L 152.195312 150.976562 L 159.335938 173.800781 C 157.484375 175.660156 155.929688 177.78125 154.726562 180.089844 C 151.667969 185.941406 150.839844 192.960938 152.964844 199.753906 C 155.089844 206.550781 159.769531 211.84375 165.617188 214.90625 C 168.328125 216.324219 171.292969 217.265625 174.367188 217.652344 L 138.523438 228.082031 C 137.769531 228.214844 137.195312 228.878906 137.195312 229.675781 L 137.195312 234.660156 C 137.195312 235.554688 137.917969 236.277344 138.808594 236.277344 L 236.125 236.277344 C 237.015625 236.277344 237.738281 235.554688 237.738281 234.660156 L 237.738281 229.675781 C 237.738281 229.597656 237.734375 229.519531 237.722656 229.441406 Z M 225.15625 192.765625 C 225.421875 193.617188 226.324219 194.089844 227.175781 193.828125 C 228.023438 193.5625 228.5 192.65625 228.234375 191.804688 L 226.003906 184.675781 C 227.496094 184.535156 228.960938 184.84375 230.238281 185.507812 C 231.964844 186.414062 233.351562 187.984375 233.980469 190 L 233.988281 190.007812 C 234.613281 192.027344 234.371094 194.101562 233.464844 195.832031 C 232.5625 197.558594 230.996094 198.945312 228.980469 199.578125 L 228.960938 199.585938 C 226.949219 200.210938 224.878906 199.964844 223.152344 199.0625 C 221.425781 198.160156 220.039062 196.589844 219.410156 194.574219 L 219.40625 194.5625 C 218.777344 192.546875 219.023438 190.46875 219.925781 188.738281 C 220.589844 187.460938 221.621094 186.371094 222.925781 185.636719 Z M 202.289062 184.800781 L 220.84375 178.984375 L 221.945312 182.503906 C 219.808594 183.542969 218.125 185.230469 217.070312 187.246094 C 215.78125 189.710938 215.433594 192.667969 216.328125 195.53125 C 217.222656 198.394531 219.195312 200.625 221.660156 201.917969 C 222.636719 202.425781 223.683594 202.785156 224.773438 202.984375 L 193.957031 211.949219 C 196.628906 209.742188 198.804688 207.027344 200.386719 204.003906 C 203.378906 198.28125 204.238281 191.453125 202.289062 184.800781 Z M 207.148438 172.433594 L 217.050781 169.332031 C 218.285156 168.945312 219.5625 169.097656 220.628906 169.65625 C 221.691406 170.210938 222.546875 171.175781 222.929688 172.410156 L 223.652344 174.71875 L 221.429688 175.417969 C 221.429688 175.417969 221.425781 175.417969 221.421875 175.417969 C 221.421875 175.417969 221.417969 175.421875 221.414062 175.421875 L 201.191406 181.761719 C 200.914062 181.117188 200.609375 180.484375 200.28125 179.875 C 200.269531 179.851562 200.257812 179.832031 200.246094 179.808594 C 200.085938 179.511719 199.921875 179.21875 199.75 178.929688 C 199.75 178.925781 199.75 178.921875 199.746094 178.921875 C 199.585938 178.648438 199.421875 178.378906 199.25 178.117188 C 199.234375 178.089844 199.21875 178.0625 199.203125 178.039062 C 198.628906 177.152344 198.007812 176.3125 197.34375 175.511719 L 207.148438 172.433594 C 207.144531 172.433594 207.144531 172.433594 207.148438 172.433594 Z M 204.644531 169.835938 L 194.84375 172.90625 C 193.222656 171.441406 191.425781 170.191406 189.5 169.1875 C 184.101562 166.355469 177.707031 165.4375 171.410156 166.988281 L 171.191406 166.289062 C 181.007812 163.214844 190.84375 160.175781 200.652344 157.074219 Z M 169.070312 159.507812 L 204.34375 148.453125 C 204.851562 148.292969 205.378906 148.355469 205.820312 148.585938 C 206.257812 148.816406 206.609375 149.210938 206.769531 149.722656 C 206.925781 150.230469 206.863281 150.761719 206.632812 151.199219 C 206.40625 151.636719 206.007812 151.988281 205.5 152.148438 L 170.226562 163.207031 L 169.386719 160.507812 Z M 142.949219 150.492188 C 142.4375 150.648438 141.90625 150.589844 141.46875 150.359375 C 141.03125 150.128906 140.679688 149.730469 140.523438 149.222656 C 140.363281 148.710938 140.425781 148.179688 140.65625 147.742188 C 140.882812 147.304688 141.28125 146.953125 141.789062 146.792969 L 150.078125 144.195312 L 151.234375 147.890625 Z M 154.792969 148.476562 C 154.792969 148.476562 154.792969 148.472656 154.789062 148.46875 L 153.152344 143.230469 L 155.359375 142.539062 L 155.542969 142.480469 C 156.75 142.128906 157.996094 142.285156 159.035156 142.828125 C 160.074219 143.375 160.910156 144.308594 161.308594 145.496094 L 165.925781 160.269531 L 167.625 165.703125 C 167.625 165.707031 167.628906 165.710938 167.628906 165.710938 L 168.328125 167.949219 C 168.292969 167.960938 168.265625 167.976562 168.230469 167.988281 C 167.640625 168.214844 167.0625 168.464844 166.496094 168.734375 C 166.460938 168.75 166.425781 168.765625 166.390625 168.78125 C 166.101562 168.925781 165.8125 169.066406 165.527344 169.214844 C 165.523438 169.214844 165.523438 169.21875 165.523438 169.21875 C 165.230469 169.371094 164.941406 169.53125 164.660156 169.695312 C 164.652344 169.699219 164.648438 169.703125 164.640625 169.703125 C 164.632812 169.707031 164.632812 169.710938 164.625 169.710938 C 164.167969 169.980469 163.71875 170.257812 163.28125 170.546875 C 163.28125 170.546875 163.277344 170.546875 163.277344 170.550781 C 162.835938 170.84375 162.402344 171.152344 161.980469 171.472656 Z M 167.101562 212.050781 C 161.996094 209.375 157.902344 204.742188 156.042969 198.789062 C 154.183594 192.839844 154.902344 186.695312 157.578125 181.578125 C 158.84375 179.15625 160.550781 176.96875 162.625 175.128906 C 162.757812 175.007812 162.898438 174.886719 163.035156 174.769531 C 163.1875 174.640625 163.339844 174.519531 163.496094 174.394531 C 163.652344 174.269531 163.808594 174.144531 163.96875 174.027344 C 164.109375 173.917969 164.253906 173.8125 164.398438 173.707031 C 164.585938 173.574219 164.773438 173.445312 164.964844 173.316406 C 165.09375 173.226562 165.226562 173.140625 165.359375 173.054688 C 165.574219 172.917969 165.789062 172.785156 166.011719 172.652344 C 166.164062 172.5625 166.3125 172.472656 166.464844 172.382812 C 166.523438 172.351562 166.578125 172.320312 166.636719 172.289062 C 166.917969 172.132812 167.203125 171.980469 167.492188 171.839844 C 167.539062 171.816406 167.582031 171.796875 167.625 171.773438 C 167.929688 171.625 168.238281 171.480469 168.550781 171.34375 C 168.578125 171.332031 168.601562 171.324219 168.632812 171.308594 C 169.300781 171.023438 169.984375 170.765625 170.691406 170.539062 C 170.71875 170.53125 170.738281 170.523438 170.765625 170.515625 L 170.910156 170.46875 C 176.824219 168.640625 182.925781 169.371094 188.011719 172.035156 C 190.203125 173.183594 192.210938 174.699219 193.933594 176.519531 C 193.976562 176.566406 194.023438 176.613281 194.066406 176.65625 C 194.285156 176.894531 194.503906 177.136719 194.714844 177.386719 C 194.726562 177.402344 194.742188 177.417969 194.753906 177.433594 C 195.210938 177.972656 195.644531 178.535156 196.050781 179.121094 C 196.058594 179.132812 196.070312 179.140625 196.078125 179.15625 C 196.261719 179.421875 196.441406 179.695312 196.613281 179.972656 C 196.652344 180.03125 196.6875 180.089844 196.726562 180.148438 C 196.890625 180.414062 197.050781 180.6875 197.207031 180.964844 C 197.234375 181.015625 197.261719 181.066406 197.289062 181.117188 C 197.449219 181.410156 197.609375 181.703125 197.753906 182.007812 C 197.761719 182.023438 197.769531 182.042969 197.777344 182.054688 C 198.097656 182.707031 198.390625 183.382812 198.652344 184.074219 C 198.660156 184.09375 198.664062 184.117188 198.671875 184.136719 C 198.804688 184.488281 198.925781 184.84375 199.042969 185.203125 L 199.101562 185.390625 C 200.925781 191.3125 200.199219 197.417969 197.539062 202.511719 C 194.878906 207.597656 190.285156 211.679688 184.386719 213.554688 L 184.203125 213.613281 C 178.285156 215.441406 172.1875 214.714844 167.101562 212.050781 Z M 234.507812 233.042969 L 140.425781 233.042969 L 140.425781 230.886719 L 234.523438 203.507812 Z M 234.507812 233.042969 " fill-opacity="1" fill-rule="nonzero"/></g><g clip-path="url(#ff148f2483)"><path fill="#dc1d25" d="M 173.34375 236.035156 L 164.929688 227.625 L 201.527344 191.027344 L 209.941406 199.4375 L 173.34375 236.035156 " fill-opacity="1" fill-rule="nonzero"/><path fill="#dc1d25" d="M 201.527344 236.035156 L 209.941406 227.625 L 173.34375 191.027344 L 164.929688 199.4375 L 201.527344 236.035156 " fill-opacity="1" fill-rule="nonzero"/></g></svg>